<?xml version="1.0" standalone="no"?>
<!DOCTYPE svg PUBLIC "-//W3C//DTD SVG 1.1//EN" "http://www.w3.org/Graphics/SVG/1.1/DTD/svg11.dtd">

<svg width="800" height="600" version="1.1" xmlns="http://www.w3.org/2000/svg">
	<ellipse stroke="black" stroke-width="1" fill="none" cx="94.5" cy="243.5" rx="30" ry="30"/>
	<text x="86.5" y="249.5" font-family="Times New Roman" font-size="20">q&#8321;</text>
	<ellipse stroke="black" stroke-width="1" fill="none" cx="94.5" cy="243.5" rx="24" ry="24"/>
	<ellipse stroke="black" stroke-width="1" fill="none" cx="266.5" cy="243.5" rx="30" ry="30"/>
	<text x="258.5" y="249.5" font-family="Times New Roman" font-size="20">q&#8322;</text>
	<ellipse stroke="black" stroke-width="1" fill="none" cx="266.5" cy="243.5" rx="24" ry="24"/>
	<ellipse stroke="black" stroke-width="1" fill="none" cx="185.5" cy="440.5" rx="30" ry="30"/>
	<text x="177.5" y="446.5" font-family="Times New Roman" font-size="20">q&#8323;</text>
	<path stroke="black" stroke-width="1" fill="none" d="M 81.275,216.703 A 22.5,22.5 0 1 1 107.725,216.703"/>
	<text x="77.5" y="167.5" font-family="Times New Roman" font-size="20">0...9</text>
	<polygon fill="black" stroke-width="1" points="107.725,216.703 116.473,213.17 108.382,207.292"/>
	<polygon stroke="black" stroke-width="1" points="124.5,243.5 236.5,243.5"/>
	<polygon fill="black" stroke-width="1" points="236.5,243.5 228.5,238.5 228.5,248.5"/>
	<text x="157.5" y="264.5" font-family="Times New Roman" font-size="20">punto</text>
	<path stroke="black" stroke-width="1" fill="none" d="M 253.275,216.703 A 22.5,22.5 0 1 1 279.725,216.703"/>
	<text x="249.5" y="167.5" font-family="Times New Roman" font-size="20">0...9</text>
	<polygon fill="black" stroke-width="1" points="279.725,216.703 288.473,213.17 280.382,207.292"/>
	<polygon stroke="black" stroke-width="1" points="255.092,271.246 196.908,412.754"/>
	<polygon fill="black" stroke-width="1" points="196.908,412.754 204.575,407.256 195.326,403.453"/>
	<text x="147.5" y="338.5" font-family="Times New Roman" font-size="20">operador</text>
	<polygon stroke="black" stroke-width="1" points="107.081,270.735 172.919,413.265"/>
	<polygon fill="black" stroke-width="1" points="172.919,413.265 174.104,403.906 165.026,408.099"/>
	<polygon stroke="black" stroke-width="1" points="155.5,435.5 103.584,272.092"/>
	<polygon fill="black" stroke-width="1" points="103.584,272.092 101.241,281.23 110.771,278.202"/>
</svg>
