<?xml version="1.0" standalone="no"?>
<!DOCTYPE svg PUBLIC "-//W3C//DTD SVG 1.1//EN" "http://www.w3.org/Graphics/SVG/1.1/DTD/svg11.dtd">

<svg width="800" height="600" version="1.1" xmlns="http://www.w3.org/2000/svg">
	<ellipse stroke="black" stroke-width="1" fill="none" cx="78.5" cy="122.5" rx="30" ry="30"/>
	<text x="68.5" y="128.5" font-family="Times New Roman" font-size="20">q0</text>
	<ellipse stroke="black" stroke-width="1" fill="none" cx="323.5" cy="122.5" rx="30" ry="30"/>
	<text x="312.5" y="128.5" font-family="Times New Roman" font-size="20">int</text>
	<ellipse stroke="black" stroke-width="1" fill="none" cx="323.5" cy="122.5" rx="24" ry="24"/>
	<ellipse stroke="black" stroke-width="1" fill="none" cx="756.5" cy="450.5" rx="30" ry="30"/>
	<text x="742.5" y="456.5" font-family="Times New Roman" font-size="20">dec</text>
	<ellipse stroke="black" stroke-width="1" fill="none" cx="756.5" cy="450.5" rx="24" ry="24"/>
	<ellipse stroke="black" stroke-width="1" fill="none" cx="291.5" cy="450.5" rx="30" ry="30"/>
	<text x="269.5" y="456.5" font-family="Times New Roman" font-size="20">space</text>
	<ellipse stroke="black" stroke-width="1" fill="none" cx="291.5" cy="450.5" rx="24" ry="24"/>
	<ellipse stroke="black" stroke-width="1" fill="none" cx="78.5" cy="481.5" rx="30" ry="30"/>
	<text x="68.5" y="487.5" font-family="Times New Roman" font-size="20">op</text>
	<ellipse stroke="black" stroke-width="1" fill="none" cx="78.5" cy="261.5" rx="30" ry="30"/>
	<text x="59.5" y="267.5" font-family="Times New Roman" font-size="20">o_sp</text>
	<ellipse stroke="black" stroke-width="1" fill="none" cx="747.5" cy="122.5" rx="30" ry="30"/>
	<text x="721.5" y="128.5" font-family="Times New Roman" font-size="20">dpoint</text>
	<ellipse stroke="black" stroke-width="1" fill="none" cx="483.5" cy="450.5" rx="30" ry="30"/>
	<text x="469.5" y="456.5" font-family="Times New Roman" font-size="20">exp</text>
	<ellipse stroke="black" stroke-width="1" fill="none" cx="483.5" cy="450.5" rx="24" ry="24"/>
	<ellipse stroke="black" stroke-width="1" fill="none" cx="622.5" cy="168.5" rx="30" ry="30"/>
	<text x="618.5" y="174.5" font-family="Times New Roman" font-size="20">e</text>
	<ellipse stroke="black" stroke-width="1" fill="none" cx="595.5" cy="317.5" rx="30" ry="30"/>
	<text x="569.5" y="323.5" font-family="Times New Roman" font-size="20">e_sign</text>
	<ellipse stroke="black" stroke-width="1" fill="none" cx="461.5" cy="53.5" rx="30" ry="30"/>
	<text x="448.5" y="59.5" font-family="Times New Roman" font-size="20">var</text>
	<ellipse stroke="black" stroke-width="1" fill="none" cx="461.5" cy="53.5" rx="24" ry="24"/>
	<ellipse stroke="black" stroke-width="1" fill="none" cx="446.5" cy="268.5" rx="30" ry="30"/>
	<text x="422.5" y="274.5" font-family="Times New Roman" font-size="20">exp_c</text>
	<ellipse stroke="black" stroke-width="1" fill="none" cx="446.5" cy="268.5" rx="24" ry="24"/>
	<polygon stroke="black" stroke-width="1" points="0.5,122.5 48.5,122.5"/>
	<polygon fill="black" stroke-width="1" points="48.5,122.5 40.5,117.5 40.5,127.5"/>
	<polygon stroke="black" stroke-width="1" points="108.5,122.5 293.5,122.5"/>
	<polygon fill="black" stroke-width="1" points="293.5,122.5 285.5,117.5 285.5,127.5"/>
	<text x="182.5" y="143.5" font-family="Times New Roman" font-size="20">digit</text>
	<path stroke="black" stroke-width="1" fill="none" d="M 65.275,95.703 A 22.5,22.5 0 1 1 91.725,95.703"/>
	<text x="56.5" y="46.5" font-family="Times New Roman" font-size="20">space</text>
	<polygon fill="black" stroke-width="1" points="91.725,95.703 100.473,92.17 92.382,86.292"/>
	<path stroke="black" stroke-width="1" fill="none" d="M 296.832,109.017 A 22.5,22.5 0 1 1 317.98,93.131"/>
	<text x="241.5" y="59.5" font-family="Times New Roman" font-size="20">digit</text>
	<polygon fill="black" stroke-width="1" points="317.98,93.131 322.852,85.053 312.854,85.212"/>
	<polygon stroke="black" stroke-width="1" points="748.323,152.489 755.677,420.511"/>
	<polygon fill="black" stroke-width="1" points="755.677,420.511 760.456,412.377 750.46,412.651"/>
	<text x="709.5" y="292.5" font-family="Times New Roman" font-size="20">digit</text>
	<path stroke="black" stroke-width="1" fill="none" d="M 769.725,477.297 A 22.5,22.5 0 1 1 743.275,477.297"/>
	<text x="738.5" y="539.5" font-family="Times New Roman" font-size="20">digit</text>
	<polygon fill="black" stroke-width="1" points="743.275,477.297 734.527,480.83 742.618,486.708"/>
	<polygon stroke="black" stroke-width="1" points="353.5,122.5 717.5,122.5"/>
	<polygon fill="black" stroke-width="1" points="717.5,122.5 709.5,117.5 709.5,127.5"/>
	<text x="522.5" y="143.5" font-family="Times New Roman" font-size="20">dot</text>
	<path stroke="black" stroke-width="1" fill="none" d="M 592.552,170.214 A 655.913,655.913 0 0 1 351.548,133.137"/>
	<polygon fill="black" stroke-width="1" points="592.552,170.214 584.385,165.492 584.728,175.486"/>
	<text x="459.5" y="185.5" font-family="Times New Roman" font-size="20">E</text>
	<polygon stroke="black" stroke-width="1" points="743.624,423.404 635.376,195.596"/>
	<polygon fill="black" stroke-width="1" points="635.376,195.596 634.293,204.968 643.325,200.676"/>
	<text x="670.5" y="326.5" font-family="Times New Roman" font-size="20">E</text>
	<path stroke="black" stroke-width="1" fill="none" d="M 500.175,475.298 A 22.5,22.5 0 1 1 473.96,478.819"/>
	<text x="481.5" y="540.5" font-family="Times New Roman" font-size="20">digit</text>
	<polygon fill="black" stroke-width="1" points="473.96,478.819 465.761,483.485 474.561,488.234"/>
	<polygon stroke="black" stroke-width="1" points="453.5,450.5 321.5,450.5"/>
	<polygon fill="black" stroke-width="1" points="321.5,450.5 329.5,455.5 329.5,445.5"/>
	<text x="365.5" y="441.5" font-family="Times New Roman" font-size="20">space</text>
	<polygon stroke="black" stroke-width="1" points="320.587,152.358 294.413,420.642"/>
	<polygon fill="black" stroke-width="1" points="294.413,420.642 300.166,413.165 290.213,412.194"/>
	<text x="313.5" y="293.5" font-family="Times New Roman" font-size="20">space</text>
	<polygon stroke="black" stroke-width="1" points="726.5,450.5 513.5,450.5"/>
	<polygon fill="black" stroke-width="1" points="513.5,450.5 521.5,455.5 521.5,445.5"/>
	<text x="597.5" y="471.5" font-family="Times New Roman" font-size="20">space</text>
	<polygon stroke="black" stroke-width="1" points="78.5,451.5 78.5,291.5"/>
	<polygon fill="black" stroke-width="1" points="78.5,291.5 73.5,299.5 83.5,299.5"/>
	<text x="83.5" y="377.5" font-family="Times New Roman" font-size="20">space</text>
	<path stroke="black" stroke-width="1" fill="none" d="M 76.654,231.674 A 22.5,22.5 0 1 1 101.051,241.893"/>
	<text x="108.5" y="189.5" font-family="Times New Roman" font-size="20">space</text>
	<polygon fill="black" stroke-width="1" points="101.051,241.893 110.484,242.013 105.293,233.466"/>
	<polygon stroke="black" stroke-width="1" points="104.593,246.696 297.407,137.304"/>
	<polygon fill="black" stroke-width="1" points="297.407,137.304 287.982,136.903 292.916,145.6"/>
	<text x="205.5" y="213.5" font-family="Times New Roman" font-size="20">digit</text>
	<path stroke="black" stroke-width="1" fill="none" d="M 266.495,466.862 A 22.5,22.5 0 1 1 263.303,440.605"/>
	<text x="173.5" y="465.5" font-family="Times New Roman" font-size="20">space</text>
	<polygon fill="black" stroke-width="1" points="263.303,440.605 258.74,432.348 253.881,441.088"/>
	<path stroke="black" stroke-width="1" fill="none" d="M 454.708,458.923 A 911.665,911.665 0 0 1 108.238,485.443"/>
	<polygon fill="black" stroke-width="1" points="108.238,485.443 115.61,491.33 116.761,481.397"/>
	<text x="274.5" y="510.5" font-family="Times New Roman" font-size="20">op</text>
	<path stroke="black" stroke-width="1" fill="none" d="M 321.642,152.435 A 400.004,400.004 0 0 1 105.698,468.858"/>
	<polygon fill="black" stroke-width="1" points="105.698,468.858 115.098,469.668 110.546,460.764"/>
	<text x="260.5" y="357.5" font-family="Times New Roman" font-size="20">op</text>
	<path stroke="black" stroke-width="1" fill="none" d="M 93.014,455.245 A 2159.863,2159.863 0 0 1 304.342,145.586"/>
	<polygon fill="black" stroke-width="1" points="304.342,145.586 295.406,148.611 303.146,154.944"/>
	<text x="165.5" y="288.5" font-family="Times New Roman" font-size="20">op</text>
	<polygon stroke="black" stroke-width="1" points="617.151,198.019 600.849,287.981"/>
	<polygon fill="black" stroke-width="1" points="600.849,287.981 607.195,281 597.356,279.217"/>
	<text x="616.5" y="251.5" font-family="Times New Roman" font-size="20">+|-</text>
	<polygon stroke="black" stroke-width="1" points="576.176,340.447 502.824,427.553"/>
	<polygon fill="black" stroke-width="1" points="502.824,427.553 511.802,424.654 504.153,418.213"/>
	<text x="497.5" y="375.5" font-family="Times New Roman" font-size="20">digit</text>
	<path stroke="black" stroke-width="1" fill="none" d="M 101.488,103.237 A 366.222,366.222 0 0 1 433.235,43.471"/>
	<polygon fill="black" stroke-width="1" points="433.235,43.471 427.07,36.33 424.115,45.884"/>
	<text x="232.5" y="21.5" font-family="Times New Roman" font-size="20">char</text>
	<path stroke="black" stroke-width="1" fill="none" d="M 486.673,37.396 A 22.5,22.5 0 1 1 489.594,63.685"/>
	<text x="535.5" y="50.5" font-family="Times New Roman" font-size="20">char|digit|_</text>
	<polygon fill="black" stroke-width="1" points="489.594,63.685 494.071,71.989 499.02,63.299"/>
	<polygon stroke="black" stroke-width="1" points="485.912,70.937 598.088,151.063"/>
	<polygon fill="black" stroke-width="1" points="598.088,151.063 594.484,142.344 588.672,150.482"/>
	<text x="547.5" y="102.5" font-family="Times New Roman" font-size="20">E</text>
	<path stroke="black" stroke-width="1" fill="none" d="M 731.394,466.918 A 642.121,642.121 0 0 1 104.999,495.558"/>
	<polygon fill="black" stroke-width="1" points="104.999,495.558 109.912,503.612 114.391,494.671"/>
	<text x="412.5" y="584.5" font-family="Times New Roman" font-size="20">op</text>
	<polygon stroke="black" stroke-width="1" points="567.001,308.128 474.999,277.872"/>
	<polygon fill="black" stroke-width="1" points="474.999,277.872 481.036,285.121 484.16,275.621"/>
	<text x="523.5" y="283.5" font-family="Times New Roman" font-size="20">char</text>
	<path stroke="black" stroke-width="1" fill="none" d="M 457.841,240.853 A 22.5,22.5 0 1 1 475.343,260.685"/>
	<text x="502.5" y="215.5" font-family="Times New Roman" font-size="20">char</text>
	<polygon fill="black" stroke-width="1" points="475.343,260.685 483.78,264.906 482.834,254.95"/>
	<polygon stroke="black" stroke-width="1" points="427.049,291.34 310.951,427.66"/>
	<polygon fill="black" stroke-width="1" points="310.951,427.66 319.945,424.812 312.332,418.328"/>
	<text x="374.5" y="379.5" font-family="Times New Roman" font-size="20">space</text>
	<path stroke="black" stroke-width="1" fill="none" d="M 421.925,285.706 A 2297.701,2297.701 0 0 1 105.661,468.761"/>
	<polygon fill="black" stroke-width="1" points="105.661,468.761 115.034,469.83 110.729,460.804"/>
	<text x="272.5" y="404.5" font-family="Times New Roman" font-size="20">op</text>
	<polygon stroke="black" stroke-width="1" points="98.505,459.144 441.495,75.856"/>
	<polygon fill="black" stroke-width="1" points="441.495,75.856 432.434,78.483 439.886,85.152"/>
	<text x="230.5" y="258.5" font-family="Times New Roman" font-size="20">char</text>
	<polygon stroke="black" stroke-width="1" points="449.691,81.078 303.309,422.922"/>
	<polygon fill="black" stroke-width="1" points="303.309,422.922 311.055,417.536 301.862,413.6"/>
	<text x="324.5" y="248.5" font-family="Times New Roman" font-size="20">space</text>
</svg>
